<svg xmlns="http://www.w3.org/2000/svg" viewBox="0 0 64 64">
<defs><linearGradient id="g" x1="8" y1="8" x2="56" y2="58"><stop stop-color="#d5a85a"/><stop offset="1" stop-color="#547861"/></linearGradient></defs>
<circle cx="32" cy="32" r="28" fill="#f4efe2" stroke="#173f32" stroke-width="1.5"/>
<path d="M19 32c0-8.2 5.4-14.5 13.4-14.5 5.4 0 9.4 2.6 11.8 6.4l-4.9 3.1c-1.5-2.4-3.8-3.8-6.7-3.8-4.7 0-7.7 3.7-7.7 8.8s3 8.8 7.7 8.8c2.9 0 5.3-1.4 6.8-3.9l4.9 3.1c-2.5 3.9-6.5 6.5-11.9 6.5C24.4 46.5 19 40.2 19 32Z" fill="url(#g)"/>
<circle cx="45.5" cy="18.5" r="2.8" fill="#d5a85a"/><circle cx="18.5" cy="45.5" r="2.3" fill="#547861"/>
</svg>